<?xml version="1.0" encoding="UTF-8"?>
<!-- Generated by Pixelmator Pro 3.5.6 -->
<svg width="576" height="576" viewBox="0 0 576 576" xmlns="http://www.w3.org/2000/svg">
    <path id="Water" fill="#ffffff" fill-opacity="0.5" stroke="none" d="M 269.5 341.899994 C 247 357.399994 219.5 368 192 368 C 165.100006 368 136.699997 357.200012 114.599998 341.899994 C 102.699997 333.399994 86.5 334.100006 75.400002 343.600006 C 61 355.5 42.900002 364.600006 24.799999 368.799988 C 7.6 372.799988 -3.1 390 0.9 407.200012 C 4.9 424.399994 22.1 435.100006 39.299999 431.100006 C 63.799999 425.399994 84.199997 414.600006 97.5 406.100006 C 126.5 421.700012 159 432 192 432 C 223.899994 432 252.600006 422.100006 272.399994 413.100006 C 278.200012 410.399994 283.5 407.799988 288 405.399994 C 292.5 407.799988 297.700012 410.5 303.600006 413.100006 C 323.399994 422.100006 352.100006 432 384 432 C 417 432 449.5 421.700012 478.5 406.200012 C 491.899994 414.600006 512.200012 425.5 536.700012 431.200012 C 553.900024 435.200012 571.099976 424.5 575.099976 407.299988 C 579.099976 390.100006 568.400024 372.899994 551.200012 368.899994 C 533.099976 364.700012 515 355.600006 500.600006 343.700012 C 489.5 334.200012 473.299988 333.600006 461.399994 342 C 439.399994 357.200012 410.899994 368 384 368 C 356.5 368 329 357.399994 306.5 341.899994 C 295.399994 334 280.600006 334 269.5 341.899994 Z M 384 480 C 356.5 480 329 469.399994 306.5 453.899994 C 295.399994 446 280.600006 446 269.5 453.899994 C 247 469.399994 219.5 480 192 480 C 165.100006 480 136.699997 469.200012 114.599998 453.899994 C 102.699997 445.399994 86.5 446.100006 75.400002 455.600006 C 61 467.5 42.900002 476.600006 24.799999 480.799988 C 7.6 484.799988 -3.1 502 0.9 519.200012 C 4.9 536.400024 22.1 547.099976 39.299999 543.099976 C 63.799999 537.400024 84.199997 526.599976 97.5 518.099976 C 126.5 533.700012 159 544 192 544 C 223.899994 544 252.600006 534.099976 272.399994 525.099976 C 278.200012 522.400024 283.5 519.799988 288 517.400024 C 292.5 519.799988 297.700012 522.5 303.600006 525.099976 C 323.399994 534.099976 352.100006 544 384 544 C 417 544 449.5 533.700012 478.5 518.200012 C 491.899994 526.599976 512.200012 537.5 536.700012 543.200012 C 553.900024 547.200012 571.099976 536.5 575.099976 519.299988 C 579.099976 502.100006 568.400024 484.899994 551.200012 480.899994 C 533.099976 476.700012 515 467.600006 500.600006 455.700012 C 489.5 446.299988 473.299988 445.600006 461.399994 454 C 439.399994 469.200012 410.899994 480 384 480 Z"/>
    <path id="House" fill="#ffffff" stroke="none" d="M 306.799988 38.099976 C 295.600006 30 280.399994 30 269.200012 38.099976 L 93.199997 166.100006 C 82 174.299988 77.300003 188.700012 81.599998 201.899994 C 85.900002 215.100006 98.099998 224 112 224 L 128 224 L 128 297 C 129.699997 298 131.300003 299 132.899994 300.100006 C 150.899994 312.5 173 320.399994 192.100006 320.399994 C 213.199997 320.399994 234.100006 311.899994 251.300003 300.100006 C 273.399994 284.600006 302.899994 284.600006 325 300.100006 C 343.399994 312.799988 364.600006 320.399994 384.200012 320.399994 C 403.200012 320.399994 425.399994 312.5 443.399994 300.100006 C 444.899994 299.100006 446.399994 298.100006 447.899994 297.200012 L 447.600006 224 L 464 224 C 477.899994 224 490.100006 215.100006 494.399994 201.899994 C 498.700012 188.700012 494 174.299988 482.799988 166.100006 Z"/>
</svg>
