<?xml version="1.0" encoding="UTF-8"?>
<svg width="641px" height="641px" viewBox="0 0 641 641" xmlns="http://www.w3.org/2000/svg" xmlns:xlink="http://www.w3.org/1999/xlink" version="1.1">
 <!-- Generated by Pixelmator Pro 2.2 -->
 <path id="Path" d="M543.424 117.022 C543.236 116.67 542.926 116.399 542.552 116.259 501.022 97.202 457.198 83.608 412.174 75.816 411.344 75.664 410.511 76.059 410.103 76.797 404.131 87.636 398.71 98.769 393.86 110.155 345.301 102.784 295.907 102.784 247.348 110.155 242.479 98.741 236.984 87.605 230.888 76.797 230.458 76.083 229.641 75.696 228.816 75.816 183.714 83.573 139.813 97.168 98.22 116.259 97.856 116.414 97.55 116.681 97.348 117.022 14.282 241.187 -8.502 362.19 2.617 481.775 2.681 482.384 2.997 482.938 3.489 483.301 51.876 519.091 105.988 546.405 163.518 564.079 164.366 564.341 165.287 564.034 165.808 563.316 178.152 546.512 189.09 528.719 198.511 510.118 198.765 509.601 198.791 509.001 198.584 508.463 198.378 507.925 197.956 507.498 197.421 507.284 180.137 500.661 163.406 492.678 147.385 483.41 146.81 483.059 146.443 482.45 146.399 481.777 146.356 481.105 146.642 480.454 147.167 480.031 150.546 477.524 153.925 474.908 157.087 472.291 157.656 471.792 158.462 471.664 159.158 471.964 264.027 519.82 377.617 519.82 481.287 471.964 481.962 471.634 482.767 471.719 483.359 472.182 486.52 474.799 489.899 477.524 493.279 480.031 493.803 480.454 494.089 481.105 494.046 481.777 494.003 482.45 493.635 483.059 493.061 483.41 477.08 492.726 460.342 500.676 443.024 507.175 442.489 507.389 442.068 507.816 441.861 508.354 441.654 508.892 441.681 509.492 441.934 510.009 451.52 528.517 462.451 546.297 474.638 563.207 475.158 563.925 476.079 564.232 476.927 563.97 534.624 546.375 588.892 519.057 637.392 483.192 637.895 482.838 638.214 482.279 638.264 481.666 651.563 343.549 615.808 223.527 543.424 117.022 Z M214.209 408.955 C182.595 408.955 156.651 379.958 156.651 344.421 156.651 308.883 182.159 279.777 214.209 279.777 246.585 279.777 272.312 308.992 271.767 344.312 271.767 379.958 246.258 408.955 214.209 408.955 Z M427.218 408.955 C395.604 408.955 369.659 379.958 369.659 344.421 369.659 308.883 395.059 279.777 427.218 279.777 459.594 279.777 485.321 308.992 484.776 344.312 484.776 379.958 459.485 408.955 427.218 408.955 Z" fill="#ffffff" fill-opacity="1" stroke="none"/>
</svg>
