<?xml version="1.0" encoding="UTF-8" ?>
<!DOCTYPE svg PUBLIC "-//W3C//DTD SVG 1.1//EN" "http://www.w3.org/Graphics/SVG/1.1/DTD/svg11.dtd">
<svg width="160pt" height="160pt" viewBox="0 0 160 160" version="1.1" xmlns="http://www.w3.org/2000/svg">
<g id="#fefefefe">
<path fill="#fefefe" opacity="1.00" d=" M 67.47 1.63 C 73.92 0.55 80.51 -0.47 87.02 0.72 C 106.92 2.36 124.86 15.63 133.76 33.27 C 139.70 44.86 140.89 58.34 139.09 71.09 C 135.95 84.82 127.69 96.49 120.01 108.02 C 108.61 124.04 97.44 140.22 86.33 156.44 C 84.08 160.13 78.34 160.91 75.39 157.64 C 73.82 155.78 71.83 153.73 72.16 151.07 C 72.18 133.01 72.16 114.95 72.17 96.89 C 71.94 91.84 75.04 86.77 79.85 85.02 C 82.50 83.86 85.42 84.45 88.21 84.18 C 96.97 81.36 104.00 73.49 105.53 64.38 C 106.01 59.86 105.98 55.13 104.20 50.87 C 100.43 41.30 90.45 34.03 79.97 34.81 C 66.96 34.22 55.02 45.93 54.87 58.89 C 54.75 78.60 54.91 98.32 54.80 118.03 C 55.12 120.84 51.15 122.90 49.46 120.24 C 41.81 110.07 34.68 99.49 28.28 88.49 C 24.84 81.48 21.49 74.15 20.95 66.25 C 19.73 51.79 23.16 36.66 32.00 24.97 C 40.55 13.34 53.21 4.46 67.47 1.63 Z" />
</g>
</svg>
