<?xml version="1.0" encoding="UTF-8"?>
<!-- Generated by Pixelmator Pro 3.5.6 -->
<svg width="1" height="1" viewBox="0 0 1 1" xmlns="http://www.w3.org/2000/svg">
    <path id="Rounded-Rectangle-copy" fill="#ffdb7b" fill-rule="evenodd" stroke="none" d="M 0 1 L 1 1 L 1 0 L 0 0 Z"/>
    <path id="Path" fill="#f7aad6" fill-rule="evenodd" stroke="#570300" stroke-width="0.01582" stroke-linejoin="round" d="M 0.313905 0.525394 C 0.313905 0.525394 0.396583 0.509926 0.539551 0.498047 C 0.691992 0.48538 0.768262 0.486792 0.768262 0.486792 C 0.768262 0.486792 0.778103 0.566306 0.725864 0.661448 C 0.689777 0.727173 0.642317 0.753177 0.592341 0.766494 C 0.557363 0.775815 0.466188 0.782957 0.387944 0.703846 C 0.314873 0.629966 0.313905 0.525394 0.313905 0.525394 Z"/>
    <path id="Ellipse" fill="#570300" fill-rule="evenodd" stroke="none" d="M 0.210125 0.396934 C 0.210125 0.377013 0.193692 0.360863 0.173422 0.360863 C 0.153151 0.360863 0.136719 0.377013 0.136719 0.396934 C 0.136719 0.416855 0.153151 0.433004 0.173422 0.433004 C 0.193692 0.433004 0.210125 0.416855 0.210125 0.396934 Z"/>
    <path id="Rounded-Rectangle" fill="#570300" fill-rule="evenodd" stroke="none" d="M 0.802209 0.370131 C 0.814565 0.382487 0.834599 0.382487 0.846955 0.370131 L 0.847838 0.369248 C 0.860682 0.356404 0.860682 0.33558 0.847838 0.322737 L 0.841554 0.316453 C 0.830433 0.305332 0.812403 0.305332 0.801282 0.316453 L 0.79728 0.320455 C 0.784924 0.332812 0.784924 0.352845 0.79728 0.365202 Z"/>
    <path id="Ellipse-copy" fill="#ffffff" fill-rule="evenodd" stroke="none" d="M 0.192406 0.385543 C 0.192406 0.379776 0.187731 0.375102 0.181965 0.375102 C 0.176198 0.375102 0.171523 0.379776 0.171523 0.385543 C 0.171523 0.39131 0.176198 0.395984 0.181965 0.395984 C 0.187731 0.395984 0.192406 0.39131 0.192406 0.385543 Z"/>
    <path id="Ellipse-copy-2" fill="#ffffff" fill-rule="evenodd" stroke="none" d="M 0.840561 0.326217 C 0.836629 0.322285 0.830679 0.32186 0.827272 0.325268 C 0.823864 0.328675 0.824289 0.334625 0.828221 0.338557 C 0.832153 0.342489 0.838102 0.342914 0.84151 0.339506 C 0.844917 0.336099 0.844492 0.330149 0.840561 0.326217 Z"/>
</svg>
