<?xml version="1.0" encoding="UTF-8"?>
<svg width="576px" height="576px" viewBox="0 0 576 576" xmlns="http://www.w3.org/2000/svg" xmlns:xlink="http://www.w3.org/1999/xlink" version="1.1">
 <!-- Generated by Pixelmator Pro 2.2 -->
 <path id="Path" d="M306.8 38.1 C295.6 30 280.4 30 269.2 38.1 L93.2 166.1 C82 174.3 77.3 188.7 81.6 201.9 85.9 215.1 98.1 224 112 224 L128 224 128 297 C129.7 298 131.3 299 132.9 300.1 150.9 312.5 173 320.4 192.1 320.4 213.2 320.4 234.1 311.9 251.3 300.1 273.4 284.6 302.9 284.6 325 300.1 343.4 312.8 364.6 320.4 384.2 320.4 403.2 320.4 425.4 312.5 443.4 300.1 444.9 299.1 446.4 298.1 447.9 297.2 L447.6 224 464 224 C477.9 224 490.1 215.1 494.4 201.9 498.7 188.7 494 174.3 482.8 166.1 L306.8 38.1 Z M269.5 341.9 C247 357.4 219.5 368 192 368 165.1 368 136.7 357.2 114.6 341.9 102.7 333.4 86.5 334.1 75.4 343.6 61 355.5 42.9 364.6 24.8 368.8 7.6 372.8 -3.1 390 0.9 407.2 4.9 424.4 22.1 435.1 39.3 431.1 63.8 425.4 84.2 414.6 97.5 406.1 126.5 421.7 159 432 192 432 223.9 432 252.6 422.1 272.4 413.1 278.2 410.4 283.5 407.8 288 405.4 292.5 407.8 297.7 410.5 303.6 413.1 323.4 422.1 352.1 432 384 432 417 432 449.5 421.7 478.5 406.2 491.9 414.6 512.2 425.5 536.7 431.2 553.9 435.2 571.1 424.5 575.1 407.3 579.1 390.1 568.4 372.9 551.2 368.9 533.1 364.7 515 355.6 500.6 343.7 489.5 334.2 473.3 333.6 461.4 342 439.4 357.2 410.9 368 384 368 356.5 368 329 357.4 306.5 341.9 295.4 334 280.6 334 269.5 341.9 Z M384 480 C356.5 480 329 469.4 306.5 453.9 295.4 446 280.6 446 269.5 453.9 247 469.4 219.5 480 192 480 165.1 480 136.7 469.2 114.6 453.9 102.7 445.4 86.5 446.1 75.4 455.6 61 467.5 42.9 476.6 24.8 480.8 7.6 484.8 -3.1 502 0.9 519.2 4.9 536.4 22.1 547.1 39.3 543.1 63.8 537.4 84.2 526.6 97.5 518.1 126.5 533.7 159 544 192 544 223.9 544 252.6 534.1 272.4 525.1 278.2 522.4 283.5 519.8 288 517.4 292.5 519.8 297.7 522.5 303.6 525.1 323.4 534.1 352.1 544 384 544 417 544 449.5 533.7 478.5 518.2 491.9 526.6 512.2 537.5 536.7 543.2 553.9 547.2 571.1 536.5 575.1 519.3 579.1 502.1 568.4 484.9 551.2 480.9 533.1 476.7 515 467.6 500.6 455.7 489.5 446.3 473.3 445.6 461.4 454 439.4 469.2 410.9 480 384 480 Z" fill="#ffffff" fill-opacity="1" stroke="none"/>
</svg>
