<?xml version="1.0" encoding="UTF-8"?>
<svg width="1024px" height="1024px" viewBox="0 0 1024 1024" xmlns="http://www.w3.org/2000/svg" xmlns:xlink="http://www.w3.org/1999/xlink" version="1.1">
 <!-- Generated by Pixelmator Pro 2.2 -->
 <path id="Rounded-Rectangle" d="M320 1 C143.27 1 0 144.27 0 321 L0 704 C0 880.73 143.27 1024 320 1024 L704 1024 C880.73 1024 1024 880.73 1024 704 L1024 321 C1024 144.27 880.73 1 704 1 Z" fill="#ffffff" fill-opacity="1" stroke="none"/>
 <g id="YouTube_full-color_icon_(2017)">
  <path id="Path" d="M840.55 347.065 C832.548 317.476 809.466 294.306 779.877 286.392 740.132 271.048 355.168 263.53 243.495 286.831 213.906 294.833 190.736 317.915 182.823 347.504 164.885 426.203 163.522 596.35 183.262 676.808 191.264 706.397 214.346 729.566 243.935 737.48 322.634 755.594 696.782 758.144 780.317 737.48 809.906 729.479 833.076 706.397 840.99 676.808 860.115 591.074 861.478 431.479 840.55 347.065 Z" fill="#ff0000" fill-opacity="1" stroke="none"/>
  <path id="Path-1" d="M625.118 511.936 L445.738 409.056 445.738 614.816 Z" fill="#ffffff" fill-opacity="1" stroke="none"/>
 </g>
</svg>
