<?xml version="1.0" encoding="UTF-8"?>
<svg width="811px" height="480px" viewBox="0 0 811 480" xmlns="http://www.w3.org/2000/svg" xmlns:xlink="http://www.w3.org/1999/xlink" version="1.1">
 <!-- Generated by Pixelmator Pro 2.2 -->
 <g id="New-Group">
  <g id="HTML-Code-Icon">
   <path id="Line" d="M62.819 299.601 L92.18 197.398" fill="none" stroke="#262d39" stroke-width="25" stroke-opacity="1" stroke-linejoin="round" stroke-linecap="round"/>
   <path id="Line-1" d="M117.591 222.808 L143 248.218" fill="none" stroke="#262d39" stroke-width="25" stroke-opacity="1" stroke-linejoin="round" stroke-linecap="round"/>
   <path id="Line-2" d="M117.591 273.627 L143 248.218" fill="none" stroke="#262d39" stroke-width="25" stroke-opacity="1" stroke-linejoin="round" stroke-linecap="round"/>
   <path id="Line-copy-1" d="M12 248.218 L37.409 222.808" fill="none" stroke="#262d39" stroke-width="25" stroke-opacity="1" stroke-linejoin="round" stroke-linecap="round"/>
   <path id="Line-copy" d="M37.409 273.627 L12 248.218" fill="none" stroke="#262d39" stroke-width="25" stroke-opacity="1" stroke-linejoin="round" stroke-linecap="round"/>
  </g>
  <path id="em-Dash" d="M320 65 L218 65" fill="none" stroke="#262d39" stroke-width="25" stroke-opacity="1" stroke-linejoin="round" stroke-linecap="round"/>
  <path id="Quote" d="M89.553 68.562 C89.553 45.021 95.778 27.593 108.227 16.276 119.544 5.864 136.294 0.318 158.476 -0.361 L163.908 24.424 C141.047 27.14 129.956 37.778 130.635 56.339 L155.759 56.339 155.759 122.545 89.553 122.545 Z M-0.419 68.562 C-0.419 45.021 5.805 27.593 18.254 16.276 29.345 5.864 46.095 0.318 68.503 -0.361 L73.596 24.424 C50.508 27.14 39.531 37.778 40.663 56.339 L65.787 56.339 65.787 122.545 -0.419 122.545 Z" fill="#404d60" fill-opacity="1" stroke="none"/>
  <path id="Consistent." d="M781.808 449.92 L810.32 449.92 810.32 478 781.808 478 Z M751.856 479.584 C734.384 479.584 725.648 470.992 725.648 453.808 L725.648 422.128 716.432 422.128 716.432 400.096 725.648 400.096 725.648 380.368 753.008 380.368 753.008 400.096 771.152 400.096 771.152 422.128 753.008 422.128 753.008 448.48 C753.008 453.664 755.504 456.256 760.496 456.256 763.76 456.256 767.216 455.392 770.864 453.664 L770.864 475.12 C765.584 478.096 759.248 479.584 751.856 479.584 Z M629.6 400.096 L656.96 400.096 656.96 411.04 C659.936 407.2 663.056 404.272 666.32 402.256 670.544 399.664 675.2 398.368 680.288 398.368 697.952 398.368 706.784 407.92 706.784 427.024 L706.784 478 679.424 478 679.424 435.808 C679.424 427.072 675.776 422.704 668.48 422.704 660.8 422.704 656.96 427.072 656.96 435.808 L656.96 478 629.6 478 Z M581.072 479.872 C568.784 479.872 558.752 476.128 550.976 468.64 543.2 461.152 539.312 451.408 539.312 439.408 L539.312 439.12 C539.312 427.6 543.008 417.952 550.4 410.176 557.792 402.304 567.2 398.368 578.624 398.368 591.392 398.368 601.328 402.592 608.432 411.04 614.768 418.72 617.936 428.704 617.936 440.992 L617.936 443.728 C617.936 444.784 617.888 445.744 617.792 446.608 L565.664 446.608 C567.872 455.152 573.488 459.424 582.512 459.424 588.656 459.424 594.416 456.784 599.792 451.504 L614.912 464.032 C610.976 469.024 606.368 472.864 601.088 475.552 595.232 478.432 588.56 479.872 581.072 479.872 Z M592.304 432.64 C591.248 423.232 586.736 418.528 578.768 418.528 571.376 418.528 566.864 423.232 565.232 432.64 Z M513.536 479.584 C496.064 479.584 487.328 470.992 487.328 453.808 L487.328 422.128 478.112 422.128 478.112 400.096 487.328 400.096 487.328 380.368 514.688 380.368 514.688 400.096 532.832 400.096 532.832 422.128 514.688 422.128 514.688 448.48 C514.688 453.664 517.184 456.256 522.176 456.256 525.44 456.256 528.896 455.392 532.544 453.664 L532.544 475.12 C527.264 478.096 520.928 479.584 513.536 479.584 Z M440.96 479.728 C427.04 479.728 414.752 475.888 404.096 468.208 L414.32 451.648 C423.344 457.6 432.272 460.576 441.104 460.576 445.712 460.576 448.016 459.184 448.016 456.4 L448.016 456.112 C448.016 454 443.84 451.792 435.488 449.488 431.072 448.336 427.472 447.184 424.688 446.032 421.136 444.688 418.208 443.152 415.904 441.424 410.528 437.392 407.84 431.776 407.84 424.576 L407.84 424.288 C407.84 416.224 410.816 409.84 416.768 405.136 422.432 400.72 429.872 398.512 439.088 398.512 451.088 398.512 461.792 401.536 471.2 407.584 L461.84 424.864 C453.2 420.064 445.52 417.664 438.8 417.664 434.576 417.664 432.464 418.912 432.464 421.408 L432.464 421.696 C432.464 423.808 436.688 426.112 445.136 428.608 449.552 429.856 453.152 431.056 455.936 432.208 459.488 433.648 462.416 435.232 464.72 436.96 470.096 440.992 472.784 446.464 472.784 453.376 L472.784 453.664 C472.784 462.016 469.856 468.496 464 473.104 458.336 477.52 450.656 479.728 440.96 479.728 Z M366.8 372.88 L395.312 372.88 395.312 393.04 366.8 393.04 Z M367.376 400.096 L394.736 400.096 394.736 478 367.376 478 Z M323.744 479.728 C309.824 479.728 297.536 475.888 286.88 468.208 L297.104 451.648 C306.128 457.6 315.056 460.576 323.888 460.576 328.496 460.576 330.8 459.184 330.8 456.4 L330.8 456.112 C330.8 454 326.624 451.792 318.272 449.488 313.856 448.336 310.256 447.184 307.472 446.032 303.92 444.688 300.992 443.152 298.688 441.424 293.312 437.392 290.624 431.776 290.624 424.576 L290.624 424.288 C290.624 416.224 293.6 409.84 299.552 405.136 305.216 400.72 312.656 398.512 321.872 398.512 333.872 398.512 344.576 401.536 353.984 407.584 L344.624 424.864 C335.984 420.064 328.304 417.664 321.584 417.664 317.36 417.664 315.248 418.912 315.248 421.408 L315.248 421.696 C315.248 423.808 319.472 426.112 327.92 428.608 332.336 429.856 335.936 431.056 338.72 432.208 342.272 433.648 345.2 435.232 347.504 436.96 352.88 440.992 355.568 446.464 355.568 453.376 L355.568 453.664 C355.568 462.016 352.64 468.496 346.784 473.104 341.12 477.52 333.44 479.728 323.744 479.728 Z M201.488 400.096 L228.848 400.096 228.848 411.04 C231.824 407.2 234.944 404.272 238.208 402.256 242.432 399.664 247.088 398.368 252.176 398.368 269.84 398.368 278.672 407.92 278.672 427.024 L278.672 478 251.312 478 251.312 435.808 C251.312 427.072 247.664 422.704 240.368 422.704 232.688 422.704 228.848 427.072 228.848 435.808 L228.848 478 201.488 478 Z M146.768 479.872 C134.48 479.872 124.208 475.888 115.952 467.92 107.888 460.144 103.856 450.64 103.856 439.408 L103.856 439.12 C103.856 427.888 107.936 418.336 116.096 410.464 124.352 402.4 134.672 398.368 147.056 398.368 159.344 398.368 169.616 402.352 177.872 410.32 185.936 418.096 189.968 427.6 189.968 438.832 L189.968 439.12 C189.968 450.352 185.888 459.904 177.728 467.776 169.472 475.84 159.152 479.872 146.768 479.872 Z M147.056 456.688 C151.856 456.688 155.792 454.96 158.864 451.504 161.84 448.24 163.328 444.208 163.328 439.408 L163.328 439.12 C163.328 434.32 161.792 430.192 158.72 426.736 155.456 423.28 151.472 421.552 146.768 421.552 141.968 421.552 138.032 423.28 134.96 426.736 131.984 430 130.496 434.032 130.496 438.832 L130.496 439.12 C130.496 443.92 132.032 448.048 135.104 451.504 138.368 454.96 142.352 456.688 147.056 456.688 Z M53.456 480.016 C38.96 480.016 26.72 475.072 16.736 465.184 6.56 455.2 1.472 442.768 1.472 427.888 L1.472 427.6 C1.472 412.816 6.512 400.384 16.592 390.304 26.768 380.224 39.44 375.184 54.608 375.184 64.4 375.184 72.992 377.152 80.384 381.088 86.912 384.544 92.576 389.584 97.376 396.208 L76.352 412.48 C70.016 404.608 62.672 400.672 54.32 400.672 47.408 400.672 41.648 403.264 37.04 408.448 32.528 413.536 30.272 419.824 30.272 427.312 L30.272 427.6 C30.272 435.28 32.528 441.664 37.04 446.752 41.552 451.936 47.312 454.528 54.32 454.528 59.216 454.528 63.584 453.424 67.424 451.216 70.496 449.296 73.712 446.32 77.072 442.288 L98.096 457.264 C92.816 464.464 86.96 469.888 80.528 473.536 72.944 477.856 63.92 480.016 53.456 480.016 Z" fill="#b9c5df" fill-opacity="1" stroke="none"/>
  <path id="Concise," d="M778.872 308.248 C788.76 307.096 793.56 302.584 793.272 294.712 L782.184 294.712 782.184 266.632 810.696 266.632 810.696 289.528 C810.696 299.704 808.008 307.144 802.632 311.848 797.832 316.168 790.632 318.472 781.032 318.76 Z M735.528 296.872 C723.24 296.872 713.208 293.128 705.432 285.64 697.656 278.152 693.768 268.408 693.768 256.408 L693.768 256.12 C693.768 244.6 697.464 234.952 704.856 227.176 712.248 219.304 721.656 215.368 733.08 215.368 745.848 215.368 755.784 219.592 762.888 228.04 769.224 235.72 772.392 245.704 772.392 257.992 L772.392 260.728 C772.392 261.784 772.344 262.744 772.248 263.608 L720.12 263.608 C722.328 272.152 727.944 276.424 736.968 276.424 743.112 276.424 748.872 273.784 754.248 268.504 L769.368 281.032 C765.432 286.024 760.824 289.864 755.544 292.552 749.688 295.432 743.016 296.872 735.528 296.872 Z M746.76 249.64 C745.704 240.232 741.192 235.528 733.224 235.528 725.832 235.528 721.32 240.232 719.688 249.64 Z M653.88 296.728 C639.96 296.728 627.672 292.888 617.016 285.208 L627.24 268.648 C636.264 274.6 645.192 277.576 654.024 277.576 658.632 277.576 660.936 276.184 660.936 273.4 L660.936 273.112 C660.936 271 656.76 268.792 648.408 266.488 643.992 265.336 640.392 264.184 637.608 263.032 634.056 261.688 631.128 260.152 628.824 258.424 623.448 254.392 620.76 248.776 620.76 241.576 L620.76 241.288 C620.76 233.224 623.736 226.84 629.688 222.136 635.352 217.72 642.792 215.512 652.008 215.512 664.008 215.512 674.712 218.536 684.12 224.584 L674.76 241.864 C666.12 237.064 658.44 234.664 651.72 234.664 647.496 234.664 645.384 235.912 645.384 238.408 L645.384 238.696 C645.384 240.808 649.608 243.112 658.056 245.608 662.472 246.856 666.072 248.056 668.856 249.208 672.408 250.648 675.336 252.232 677.64 253.96 683.016 257.992 685.704 263.464 685.704 270.376 L685.704 270.664 C685.704 279.016 682.776 285.496 676.92 290.104 671.256 294.52 663.576 296.728 653.88 296.728 Z M579.72 189.88 L608.232 189.88 608.232 210.04 579.72 210.04 Z M580.296 217.096 L607.656 217.096 607.656 295 580.296 295 Z M535.368 296.872 C523.752 296.872 514.008 292.888 506.136 284.92 498.456 277.048 494.616 267.544 494.616 256.408 L494.616 256.12 C494.616 244.888 498.504 235.384 506.28 227.608 514.248 219.544 524.28 215.512 536.376 215.512 544.056 215.512 550.776 217.096 556.536 220.264 561.816 223.24 566.184 227.464 569.64 232.936 L551.064 246.76 C547.128 241.288 542.28 238.552 536.52 238.552 532.2 238.552 528.552 240.232 525.576 243.592 522.696 246.952 521.256 251.032 521.256 255.832 L521.256 256.12 C521.256 261.208 522.696 265.432 525.576 268.792 528.456 272.152 532.2 273.832 536.808 273.832 542.184 273.832 547.176 271.144 551.784 265.768 L570.072 279.016 C566.232 284.68 561.672 289 556.392 291.976 550.536 295.24 543.528 296.872 535.368 296.872 Z M406.488 217.096 L433.848 217.096 433.848 228.04 C436.824 224.2 439.944 221.272 443.208 219.256 447.432 216.664 452.088 215.368 457.176 215.368 474.84 215.368 483.672 224.92 483.672 244.024 L483.672 295 456.312 295 456.312 252.808 C456.312 244.072 452.664 239.704 445.368 239.704 437.688 239.704 433.848 244.072 433.848 252.808 L433.848 295 406.488 295 Z M351.768 296.872 C339.48 296.872 329.208 292.888 320.952 284.92 312.888 277.144 308.856 267.64 308.856 256.408 L308.856 256.12 C308.856 244.888 312.936 235.336 321.096 227.464 329.352 219.4 339.672 215.368 352.056 215.368 364.344 215.368 374.616 219.352 382.872 227.32 390.936 235.096 394.968 244.6 394.968 255.832 L394.968 256.12 C394.968 267.352 390.888 276.904 382.728 284.776 374.472 292.84 364.152 296.872 351.768 296.872 Z M352.056 273.688 C356.856 273.688 360.792 271.96 363.864 268.504 366.84 265.24 368.328 261.208 368.328 256.408 L368.328 256.12 C368.328 251.32 366.792 247.192 363.72 243.736 360.456 240.28 356.472 238.552 351.768 238.552 346.968 238.552 343.032 240.28 339.96 243.736 336.984 247 335.496 251.032 335.496 255.832 L335.496 256.12 C335.496 260.92 337.032 265.048 340.104 268.504 343.368 271.96 347.352 273.688 352.056 273.688 Z M258.456 297.016 C243.96 297.016 231.72 292.072 221.736 282.184 211.56 272.2 206.472 259.768 206.472 244.888 L206.472 244.6 C206.472 229.816 211.512 217.384 221.592 207.304 231.768 197.224 244.44 192.184 259.608 192.184 269.4 192.184 277.992 194.152 285.384 198.088 291.912 201.544 297.576 206.584 302.376 213.208 L281.352 229.48 C275.016 221.608 267.672 217.672 259.32 217.672 252.408 217.672 246.648 220.264 242.04 225.448 237.528 230.536 235.272 236.824 235.272 244.312 L235.272 244.6 C235.272 252.28 237.528 258.664 242.04 263.752 246.552 268.936 252.312 271.528 259.32 271.528 264.216 271.528 268.584 270.424 272.424 268.216 275.496 266.296 278.712 263.32 282.072 259.288 L303.096 274.264 C297.816 281.464 291.96 286.888 285.528 290.536 277.944 294.856 268.92 297.016 258.456 297.016 Z" fill="#b9c5df" fill-opacity="1" stroke="none"/>
  <path id="Clean," d="M778.872 125.248 C788.76 124.096 793.56 119.584 793.272 111.712 L782.184 111.712 782.184 83.632 810.696 83.632 810.696 106.528 C810.696 116.704 808.008 124.144 802.632 128.848 797.832 133.168 790.632 135.472 781.032 135.76 Z M692.04 34.096 L719.4 34.096 719.4 45.04 C722.376 41.2 725.496 38.272 728.76 36.256 732.984 33.664 737.64 32.368 742.728 32.368 760.392 32.368 769.224 41.92 769.224 61.024 L769.224 112 741.864 112 741.864 69.808 C741.864 61.072 738.216 56.704 730.92 56.704 723.24 56.704 719.4 61.072 719.4 69.808 L719.4 112 692.04 112 Z M628.104 113.728 C620.424 113.728 614.184 111.664 609.384 107.536 604.392 103.216 601.896 97.264 601.896 89.68 L601.896 89.392 C601.896 81.52 604.68 75.424 610.248 71.104 615.624 66.976 623.016 64.912 632.424 64.912 639.24 64.912 645.48 65.92 651.144 67.936 L651.144 66.64 C651.144 58.192 645.96 53.968 635.592 53.968 628.584 53.968 621.432 55.408 614.136 58.288 L608.52 38.992 C613.32 36.976 618.024 35.536 622.632 34.672 627.912 33.52 633.72 32.944 640.056 32.944 653.496 32.944 663.384 36.112 669.72 42.448 675.288 47.92 678.072 56.176 678.072 67.216 L678.072 112 651 112 651 103.936 C645.144 110.464 637.512 113.728 628.104 113.728 Z M637.896 96.592 C646.92 96.592 651.432 92.32 651.432 83.776 L651.432 80.176 C648.264 78.832 644.712 78.16 640.776 78.16 632.424 78.16 628.248 81.376 628.248 87.808 L628.248 88.096 C628.248 93.76 631.464 96.592 637.896 96.592 Z M557.256 113.872 C544.968 113.872 534.936 110.128 527.16 102.64 519.384 95.152 515.496 85.408 515.496 73.408 L515.496 73.12 C515.496 61.6 519.192 51.952 526.584 44.176 533.976 36.304 543.384 32.368 554.808 32.368 567.576 32.368 577.512 36.592 584.616 45.04 590.952 52.72 594.12 62.704 594.12 74.992 L594.12 77.728 C594.12 78.784 594.072 79.744 593.976 80.608 L541.848 80.608 C544.056 89.152 549.672 93.424 558.696 93.424 564.84 93.424 570.6 90.784 575.976 85.504 L591.096 98.032 C587.16 103.024 582.552 106.864 577.272 109.552 571.416 112.432 564.744 113.872 557.256 113.872 Z M568.488 66.64 C567.432 57.232 562.92 52.528 554.952 52.528 547.56 52.528 543.048 57.232 541.416 66.64 Z M476.04 6.88 L503.4 6.88 503.4 112 476.04 112 Z M420.456 114.016 C405.96 114.016 393.72 109.072 383.736 99.184 373.56 89.2 368.472 76.768 368.472 61.888 L368.472 61.6 C368.472 46.816 373.512 34.384 383.592 24.304 393.768 14.224 406.44 9.184 421.608 9.184 431.4 9.184 439.992 11.152 447.384 15.088 453.912 18.544 459.576 23.584 464.376 30.208 L443.352 46.48 C437.016 38.608 429.672 34.672 421.32 34.672 414.408 34.672 408.648 37.264 404.04 42.448 399.528 47.536 397.272 53.824 397.272 61.312 L397.272 61.6 C397.272 69.28 399.528 75.664 404.04 80.752 408.552 85.936 414.312 88.528 421.32 88.528 426.216 88.528 430.584 87.424 434.424 85.216 437.496 83.296 440.712 80.32 444.072 76.288 L465.096 91.264 C459.816 98.464 453.96 103.888 447.528 107.536 439.944 111.856 430.92 114.016 420.456 114.016 Z" fill="#b9c5df" fill-opacity="1" stroke="none"/>
 </g>
</svg>
