<?xml version="1.0" encoding="UTF-8"?>
<!-- Generated by Pixelmator Pro 3.5.6 -->
<svg width="844" height="542" viewBox="0 0 844 542" xmlns="http://www.w3.org/2000/svg">
	<g id="New-Group">
		<path id="em-Dash" fill="none" stroke="#262d39" stroke-width="22" stroke-linecap="round" stroke-linejoin="round" d="M 340 95 L 238 95"/>
		<path id="Quote" fill="#404d60" fill-rule="evenodd" stroke="none" d="M 109.553253 98.561523 C 109.553253 75.021423 115.77771 57.592957 128.226791 46.275635 C 139.544159 35.863647 156.293579 30.318237 178.475586 29.639221 L 183.907898 54.424072 C 161.046844 57.140259 149.955994 67.778381 150.63504 86.338867 L 175.75943 86.338867 L 175.75943 152.545044 L 109.553253 152.545044 Z M 19.58075 98.561523 C 19.58075 75.021423 25.805206 57.592957 38.254288 46.275635 C 49.345291 35.863647 66.094727 30.318237 88.503082 29.639221 L 93.595871 54.424072 C 70.508469 57.140259 59.530807 67.778381 60.662537 86.338867 L 85.786926 86.338867 L 85.786926 152.545044 L 19.58075 152.545044 Z"/>
		<g id="Words-copy">
			<path id="Path" fill="#b9c5df" stroke="none" d="M 496.145508 37 L 518.214111 37 C 518.374084 72.154846 518.239136 107.309692 518.284119 142.464539 C 510.89624 142.469543 503.513367 142.474548 496.130493 142.464539 C 496.135468 107.309692 496.105499 72.154846 496.145508 37 Z"/>
			<path id="path1" fill="#b9c5df" stroke="none" d="M 420.997192 44.732727 C 430.839325 41.23877 441.571259 40.623932 451.853302 42.188477 C 463.519897 43.962952 474.786652 49.651306 482.234497 58.948639 C 477.325897 63.502319 472.422333 68.05603 467.503754 72.599701 C 462.780121 67.196259 456.476959 63.002502 449.373993 61.577881 C 440.406586 59.793396 430.559448 61.342987 423.081604 66.776398 C 416.793427 71.275085 412.599609 78.388062 411.254974 85.960846 C 409.750427 94.473389 410.975098 103.690735 415.753693 111.018616 C 420.002472 117.696686 427.125427 122.330353 434.85321 123.889923 C 441.781219 125.27951 449.21405 124.83963 455.6922 121.885498 C 460.265869 119.831085 464.224731 116.597015 467.503754 112.838104 C 472.422333 117.381805 477.325897 121.935455 482.234497 126.489136 C 475.876373 134.321899 466.823944 139.730316 457.096771 142.21463 C 448.369263 144.438965 439.166931 144.698883 430.294525 143.234314 C 420.37738 141.539795 410.830109 137.196045 403.407257 130.353027 C 397.184052 124.669678 392.515411 117.336823 389.901184 109.329132 C 387.376892 101.526367 386.857056 93.148773 387.901764 85.041107 C 389.281311 74.364197 394.279877 64.182129 401.937714 56.609344 C 407.286133 51.270874 413.889252 47.262024 420.997192 44.732727 Z"/>
			<path id="path2" fill="#b9c5df" stroke="none" d="M 548.270447 73.014587 C 554.078796 68.690857 561.081726 66.06662 568.269653 65.296814 C 577.392029 64.297119 586.95929 65.671722 595.001953 70.250366 C 603.344543 74.889069 609.622681 83.031708 612.067017 92.249023 C 613.66156 98.172333 613.91156 104.395538 613.261719 110.47879 C 593.9823 110.493744 574.697815 110.468781 555.418396 110.493744 C 556.503052 115.362366 559.492249 119.821075 563.781006 122.425323 C 569.394348 125.924316 576.362366 126.454163 582.770508 125.489441 C 587.973999 124.729675 592.752563 122.070435 596.511536 118.446472 C 600.445374 122.700256 604.364258 126.959015 608.288147 131.217773 C 604.624207 135.381592 599.880554 138.53067 594.717041 140.515106 C 587.754028 143.199341 580.16626 143.844147 572.768372 143.42926 C 564.860657 142.979401 556.957947 140.800018 550.289856 136.451294 C 543.241943 131.97757 537.773438 125.054565 535.159241 117.121857 C 532.919922 110.328827 532.639954 102.965942 533.924561 95.957947 C 535.584106 86.860596 540.837585 78.497986 548.270447 73.014587 M 563.006165 84.726227 C 558.627441 87.560364 555.903259 92.468964 555.158447 97.567505 C 567.689819 97.577515 580.221252 97.577515 592.752563 97.567505 C 591.937805 91.504242 588.018982 85.895874 582.410583 83.356598 C 576.26239 80.682404 568.664612 81.022278 563.006165 84.726227 Z"/>
			<path id="path3" fill="#b9c5df" stroke="none" d="M 624.163574 74.214233 C 632.48114 68.340942 642.713196 65.861633 652.740295 65.131836 C 662.357544 64.597015 672.574585 65.546722 680.927124 70.740265 C 685.91571 73.769379 689.744629 78.572998 691.654053 84.086395 C 693.488525 89.159943 693.988342 94.608368 693.933411 99.971802 C 693.928406 114.137726 693.933411 128.303619 693.928406 142.464539 C 686.990417 142.469543 680.047424 142.474548 673.109375 142.464539 C 673.10437 139.335419 673.09436 136.20636 673.114441 133.07724 C 671.254944 136.096375 668.585754 138.585663 665.446594 140.235168 C 660.498047 142.869415 654.774719 143.599213 649.241272 143.54422 C 643.163025 143.484253 636.934875 142.264587 631.736328 138.99054 C 627.167664 136.211334 623.633667 131.722626 622.214111 126.549133 C 620.734497 121.010742 621.219421 114.847534 623.988586 109.778992 C 626.362854 105.310242 630.741638 102.291107 635.360291 100.481659 C 643.103027 97.442566 651.570618 97.547485 659.75824 97.597504 C 663.76709 97.592468 667.77594 97.602509 671.789734 97.592468 C 671.814819 93.603638 670.610107 89.389832 667.571045 86.64566 C 664.137024 83.481537 659.248413 82.691803 654.744751 82.601837 C 646.721985 82.521851 638.519409 84.781189 632.051208 89.624786 C 629.432007 84.481293 626.772827 79.362762 624.163574 74.214233 M 645.83728 113.068024 C 642.723145 115.652283 642.063416 120.585846 644.197754 123.974884 C 645.74231 126.379181 648.461548 127.768768 651.20575 128.303619 C 655.984375 129.198364 661.152893 128.588562 665.376648 126.094269 C 668.320801 124.404755 670.57019 121.600555 671.714783 118.416504 C 671.864746 115.787231 671.729797 113.14801 671.774841 110.513763 C 666.101379 110.528748 660.42804 110.458801 654.759705 110.548767 C 651.680603 110.738708 648.311584 111.03363 645.83728 113.068024 Z"/>
			<path id="path4" fill="#b9c5df" stroke="none" d="M 735.041565 75.113983 C 741.449646 67.966064 751.316772 64.806976 760.729126 64.996887 C 769.561584 65.021881 778.918884 67.991028 784.6922 74.989014 C 790.010681 81.162231 791.890076 89.494812 791.985107 97.462524 C 792.025085 112.463226 791.990112 127.463867 792.005066 142.464539 C 784.617249 142.474548 777.234375 142.469543 769.846497 142.464539 C 769.841492 128.808502 769.856506 115.152435 769.841492 101.496338 C 769.766479 97.357574 769.131653 92.983795 766.667419 89.5448 C 764.393066 86.365723 760.594177 84.561249 756.760254 84.21637 C 751.041931 83.611511 744.713745 85.111084 740.789917 89.5448 C 737.265869 93.453705 736.141174 98.877136 736.096252 103.995667 C 736.081238 116.816925 736.096252 129.643219 736.091187 142.464539 C 728.703369 142.469543 721.320496 142.474548 713.932617 142.464539 C 713.937622 117.001923 713.932617 91.534271 713.932617 66.071594 C 720.970581 66.061615 728.003601 66.06662 735.041565 66.071594 C 735.041565 69.085724 735.041565 72.099823 735.041565 75.113983 Z"/>
			<path id="path5" fill="#b9c5df" stroke="none" d="M 809.600037 120.885773 C 814.673523 114.567596 825.475464 114.272705 830.853943 120.340942 C 832.993286 122.625275 833.997925 125.739349 834.197937 128.818481 L 834.197937 130.757935 C 833.778015 136.466278 831.153748 141.634766 829.104431 146.878265 C 826.77002 152.696594 824.465759 158.524902 822.121399 164.338226 C 817.437744 164.333252 812.759094 164.343201 808.080444 164.328217 C 810.119812 156.845367 812.194275 149.372559 814.22876 141.889709 C 810.959595 140.350128 808.190369 137.545959 807.270691 133.992004 C 806.131042 129.593262 806.630859 124.479736 809.600037 120.885773 Z"/>
			<path id="path6" fill="#b9c5df" stroke="none" d="M 610.387512 211.069733 C 615.321106 210.025024 621.034485 210.789825 624.763367 214.438782 C 629.592041 218.977448 629.03717 227.534973 624.203552 231.863739 C 620.9245 234.982819 616.075867 235.772614 611.727173 235.18277 C 608.293152 234.747894 605.024048 232.983398 602.924622 230.214233 C 600.500366 227.145081 599.97052 222.846344 601.130188 219.167419 C 602.469849 215.063599 606.20874 211.974457 610.387512 211.069733 Z"/>
			<path id="path7" fill="#b9c5df" stroke="none" d="M 253.790466 225.38562 C 263.597626 221.466736 274.439484 220.582001 284.861481 221.896606 C 297.107971 223.411163 309.089508 229.149506 316.882263 238.891693 C 311.983673 243.455383 307.070068 247.999054 302.161499 252.54776 C 297.407867 247.109344 291.044708 242.895569 283.886749 241.500946 C 274.939331 239.75647 265.132202 241.325989 257.684326 246.75943 C 251.276184 251.363129 247.057404 258.690979 245.812775 266.443756 C 244.483154 274.666382 245.677795 283.503815 250.186493 290.621765 C 254.310303 297.309845 261.293274 302.033447 268.936096 303.713013 C 276.128998 305.282532 283.911743 304.852661 290.634827 301.698547 C 295.083557 299.644165 298.947418 296.465088 302.156494 292.786133 C 307.075104 297.329834 311.978668 301.878479 316.882263 306.437225 C 310.943939 313.750061 302.646362 318.973572 293.643982 321.632813 C 284.956482 324.202087 275.714142 324.656921 266.761719 323.467285 C 257.344421 322.157654 248.182068 318.503723 240.714233 312.570435 C 234.496033 307.646851 229.527451 301.178741 226.338379 293.920807 C 222.354538 285.018402 221.329834 274.986298 222.504501 265.35907 C 223.74913 255.162018 228.282837 245.389832 235.300797 237.886993 C 240.414322 232.38858 246.817459 228.139832 253.790466 225.38562 Z"/>
			<path id="path8" fill="#b9c5df" stroke="none" d="M 358.080353 245.299866 C 367.747559 244.220184 377.909607 245.484802 386.522156 250.218445 C 393.620117 254.022339 399.493408 260.120575 402.852417 267.458466 C 406.196472 274.756348 406.936218 283.063934 405.781586 290.956665 C 404.621887 298.934387 400.728027 306.462219 394.914703 312.045593 C 388.426605 318.293762 379.764099 322.082703 370.851654 323.112396 C 361.219452 324.232056 351.082367 322.992432 342.499847 318.278748 C 335.406891 314.474884 329.538605 308.406616 326.0896 301.123749 C 322.435638 293.415955 321.705841 284.528534 323.19043 276.190918 C 324.649994 267.998291 329.118713 260.445465 335.401886 255.017059 C 341.715088 249.528625 349.782745 246.214569 358.080353 245.299866 M 361.089478 263.319641 C 355.940979 264.034454 351.157379 267.02359 348.34317 271.412323 C 345.199036 276.080963 344.494263 281.974274 345.064117 287.467682 C 345.608948 292.921082 348.223206 298.279572 352.641937 301.623596 C 358.160339 305.792389 365.913086 306.392212 372.256256 303.872955 C 377.699677 301.713562 381.62854 296.64502 383.048157 291.041626 C 384.062836 287.0578 384.117859 282.848999 383.403046 278.810181 C 382.468323 273.59668 379.424194 268.683105 374.865509 265.893921 C 370.801697 263.34964 365.788116 262.639832 361.089478 263.319641 Z"/>
			<path id="path9" fill="#b9c5df" stroke="none" d="M 442.281036 255.062042 C 448.524231 248.079071 458.096497 244.899994 467.293793 244.939972 C 476.196259 244.844971 485.683533 247.654175 491.63678 254.597168 C 497.160217 260.79538 499.134613 269.297913 499.219604 277.410583 C 499.259583 292.411255 499.224579 307.411926 499.234619 322.412598 C 491.851715 322.417603 484.468903 322.417603 477.086029 322.412598 C 477.080994 309.081421 477.086029 295.7453 477.086029 282.414154 C 477.091003 278.38031 476.656128 274.171509 474.621704 270.602539 C 472.732239 267.24353 469.193298 265.019165 465.434357 264.374359 C 460.610718 263.544586 455.397247 264.209381 451.193512 266.81366 C 447.599548 269.037994 445.195221 272.851898 444.195496 276.910706 C 443.105835 280.989532 443.350739 285.243317 443.325745 289.417114 C 443.325745 300.418945 443.33075 311.415771 443.32077 322.412598 C 435.937897 322.417603 428.555023 322.422607 421.17215 322.412598 C 421.17215 296.949951 421.167145 271.4823 421.17215 246.019653 C 428.205109 246.009644 435.238098 246.014648 442.276031 246.014648 C 442.281036 249.033783 442.271057 252.047913 442.281036 255.062042 Z"/>
			<path id="path10" fill="#b9c5df" stroke="none" d="M 548.225464 245.584778 C 558.857422 244.000244 570.389038 245.134918 579.596375 251.073181 C 584.549988 254.22229 588.478821 258.89093 590.853149 264.254395 C 585.174866 267.35849 579.496399 270.462585 573.808044 273.546722 C 571.80365 270.122681 569.069397 266.998596 565.47052 265.209106 C 557.187805 260.915344 545.776123 263.179688 540.362732 270.967468 C 536.83374 275.821045 536.093933 282.134216 536.788757 287.952545 C 537.368652 293.08606 539.86792 298.069611 543.986694 301.258667 C 550.499756 306.297241 560.237061 306.77713 567.165039 302.288391 C 569.994141 300.463928 572.133545 297.769714 573.803101 294.885529 C 579.491394 297.969666 585.1698 301.073761 590.853149 304.177856 C 588.088928 310.426056 583.145386 315.624542 577.102112 318.788635 C 568.334656 323.487305 557.952637 324.292053 548.245483 322.852478 C 537.208618 321.202942 526.62677 315.209686 520.423523 305.797363 C 514.720154 297.454803 513.115601 286.817871 514.725098 276.960724 C 515.739868 270.647522 518.47406 264.629272 522.557922 259.710693 C 528.916016 251.962921 538.378235 247.084351 548.225464 245.584778 Z"/>
			<path id="path11" fill="#b9c5df" stroke="none" d="M 666.786194 245.52478 C 676.783325 244.230133 687.045349 245.119904 696.722595 247.909088 C 699.651733 248.798859 702.510925 249.958496 705.165161 251.493073 C 702.690857 256.77652 700.216553 262.060028 697.7323 267.33847 C 689.989563 262.644867 680.657227 261.150269 671.724792 261.845062 C 668.515747 262.154968 665.006775 262.869781 662.777466 265.399048 C 660.888 267.428467 661.137878 271.107391 663.527222 272.646973 C 666.186401 274.391449 669.375488 275.016296 672.459656 275.58609 C 680.877197 277.100677 689.719604 277.640533 697.437378 281.674347 C 702.151001 283.978699 705.974915 288.332428 707.074646 293.530945 C 708.144287 298.5495 707.879395 304.022919 705.460022 308.631561 C 701.836121 315.679565 694.383301 319.78833 686.965393 321.732788 C 677.898071 323.997131 668.355774 323.927185 659.163452 322.482574 C 651.980469 321.192932 644.752625 319.213531 638.509399 315.324646 C 640.973694 310.036133 643.463013 304.75769 645.937256 299.474182 C 654.994629 304.877625 665.771545 307.341949 676.283447 306.637146 C 679.327637 306.362244 682.686646 305.937378 684.990967 303.718018 C 686.950439 301.898499 687.295349 298.30957 685.145996 296.505066 C 683.321472 295.065491 681.007141 294.450653 678.787781 293.935822 C 669.625427 292.066345 659.928223 291.891418 651.385681 287.732605 C 646.786987 285.608215 642.883118 281.689362 641.38855 276.780762 C 639.424133 269.982727 640.273926 262.095001 644.847534 256.501617 C 650.141052 249.86853 658.593567 246.654449 666.786194 245.52478 Z"/>
			<path id="path12" fill="#b9c5df" stroke="none" d="M 749.242432 245.444824 C 758.469727 244.150208 768.221985 245.259857 776.524536 249.64859 C 783.242676 253.117584 788.741028 258.810944 792.095093 265.574005 C 795.873962 273.221802 796.678772 282.029266 795.783997 290.426819 C 776.504578 290.446838 757.225159 290.41684 737.940735 290.441833 C 738.860413 294.470673 741.02478 298.249573 744.238892 300.883789 C 747.992859 304.007904 752.861389 305.512451 757.689941 305.792389 C 762.458618 306.062317 767.392212 305.537445 771.75592 303.473053 C 774.455139 302.218445 776.869446 300.428955 779.038879 298.394531 C 782.962708 302.658264 786.906555 306.9021 790.815369 311.185852 C 784.942139 317.843903 776.424622 321.722778 767.722107 322.90744 C 759.364502 324.0271 750.702026 323.642242 742.644287 321.057983 C 733.881897 318.22879 725.929199 312.475464 721.150513 304.527771 C 716.026978 296.260132 714.727417 286.053101 716.326904 276.565826 C 717.451599 269.802795 720.515686 263.389618 725.049438 258.251099 C 731.207642 251.223145 740.03009 246.744415 749.242432 245.444824 M 745.50354 264.68924 C 741.139771 267.528442 738.420532 272.427032 737.685791 277.515564 C 750.212158 277.525543 762.743591 277.525543 775.269897 277.515564 C 774.485168 271.68222 770.836182 266.253815 765.547729 263.599579 C 759.289551 260.575439 751.351868 260.865356 745.50354 264.68924 Z"/>
			<path id="path13" fill="#b9c5df" stroke="none" d="M 603.249573 246.014648 C 610.632446 246.009644 618.01532 246.009644 625.398193 246.014648 C 625.403198 271.4823 625.403198 296.944946 625.398193 322.412598 C 618.01532 322.417603 610.632446 322.422607 603.249573 322.412598 C 603.244568 296.944946 603.244568 271.4823 603.249573 246.014648 Z"/>
			<path id="path14" fill="#b9c5df" stroke="none" d="M 808.830261 300.558899 C 813.98877 294.500671 824.545654 294.315735 829.849182 300.278992 C 832.258484 302.868225 833.278198 306.487183 833.178162 309.971161 C 833.093201 314.89978 831.108765 319.513428 829.239319 323.992126 C 826.520142 330.750183 823.845947 337.528198 821.121643 344.286285 C 816.443054 344.276245 811.764404 344.29126 807.085754 344.276245 C 809.120117 336.788452 811.199585 329.310608 813.234009 321.822754 C 809.944946 320.313171 807.195679 317.484009 806.270996 313.935059 C 805.096313 309.431335 805.666138 304.152893 808.830261 300.558899 Z"/>
			<path id="path15" fill="#b9c5df" stroke="none" d="M 389.021423 391.172729 C 392.110535 390.362976 395.419556 390.402954 398.503662 391.237732 C 402.277588 392.287415 405.691589 395.116608 406.846252 398.940521 C 408.1409 403.344238 407.02124 408.517731 403.597198 411.686829 C 400.303162 414.920898 395.359619 415.735657 390.935852 415.125824 C 387.501862 414.675964 384.237823 412.891479 382.143402 410.112274 C 379.809082 407.113159 379.264221 402.964355 380.313934 399.365387 C 381.51358 395.351501 385.017578 392.247437 389.021423 391.172729 Z"/>
			<path id="path16" fill="#b9c5df" stroke="none" d="M 44.855774 404.203979 C 54.997849 400.894958 65.984673 400.495056 76.436653 402.439514 C 87.388489 404.488892 97.815483 410.08728 104.838455 418.844727 C 99.934875 423.398438 95.031296 427.952118 90.112701 432.495789 C 85.384079 427.082397 79.065903 422.88858 71.957954 421.468994 C 63.010532 419.699493 53.183369 421.239075 45.710526 426.652527 C 39.412346 431.151215 35.213558 438.269165 33.858948 445.851959 C 32.359383 454.359497 33.579029 463.576843 38.35265 470.904724 C 42.596424 477.577789 49.704372 482.216461 57.422146 483.781006 C 64.485107 485.205597 72.082916 484.720734 78.651016 481.616638 C 83.08474 479.562225 86.913628 476.388153 90.122704 472.729218 C 95.026291 477.287903 99.939873 481.826569 104.838455 486.385284 C 98.200378 494.567902 88.623138 500.091309 78.40609 502.430634 C 74.45723 503.415344 70.393402 503.695251 66.369568 504.180115 C 64.725037 504.325073 63.070518 504.330078 61.430988 504.18512 C 57.592094 503.715271 53.718212 503.450317 49.949306 502.545593 C 41.236816 500.576141 32.934216 496.527344 26.30113 490.514038 C 19.278158 484.195892 14.179629 475.78833 11.755329 466.665955 C 9.835883 459.353058 9.545967 451.645294 10.615658 444.172455 C 12.140218 433.660461 17.183762 423.68338 24.791567 416.265503 C 30.404947 410.732086 37.382931 406.658295 44.855774 404.203979 Z"/>
			<path id="path17" fill="#b9c5df" stroke="none" d="M 503.313446 409.012573 C 510.691284 409.012573 518.074158 409.007568 525.457031 409.012573 C 525.472046 415.2258 525.452026 421.438995 525.46698 427.652222 C 531.795227 427.662201 538.123413 427.647217 544.451538 427.657196 C 544.456543 433.325562 544.451538 438.988953 544.451538 444.652283 C 538.123413 444.667297 531.795227 444.657288 525.472046 444.657288 C 525.457031 455.07431 525.462036 465.486267 525.46698 475.90329 C 525.462036 478.622498 526.181824 481.521667 528.196228 483.4711 C 530.025696 485.325562 532.724976 486.01535 535.27417 485.925385 C 538.363342 485.905396 541.42749 484.955658 543.941711 483.141174 C 545.881104 488.344696 547.855591 493.538208 549.795044 498.741699 C 544.976379 502.070709 539.013062 503.17041 533.269775 503.420349 C 526.441772 503.610291 519.263794 502.565613 513.480469 498.701691 C 509.951508 496.382385 507.162292 492.983337 505.577789 489.074463 C 503.908264 485.060638 503.333435 480.671906 503.308441 476.353149 C 503.298431 465.786194 503.313446 455.224243 503.303467 444.662292 C 499.354553 444.652283 495.405701 444.667297 491.461884 444.657288 C 491.451843 438.988953 491.446869 433.320587 491.461884 427.652222 C 495.405701 427.652222 499.354553 427.657196 503.298431 427.652222 C 503.31842 421.438995 503.293427 415.2258 503.313446 409.012573 Z"/>
			<path id="path18" fill="#b9c5df" stroke="none" d="M 750.467041 409.012573 C 757.849915 409.007568 765.232788 409.007568 772.615723 409.012573 C 772.630676 415.235809 772.600708 421.459015 772.630676 427.68222 C 778.953857 427.627197 785.282043 427.667206 791.610168 427.657196 C 791.610168 433.325562 791.615234 438.993927 791.605286 444.657288 C 785.277039 444.662292 778.948792 444.652283 772.620728 444.667297 C 772.625671 455.234253 772.600708 465.801178 772.63562 476.373138 C 772.595703 480.087067 774.575073 484.060944 778.259094 485.310577 C 782.542847 486.670166 787.461426 485.750458 791.095337 483.131195 C 793.0448 488.329681 794.979309 493.528198 796.963684 498.7117 C 792.394958 501.940796 786.706604 503.040436 781.223267 503.385345 C 774.095276 503.695251 766.547485 502.695526 760.519165 498.621735 C 756.570313 496.012451 753.62616 492.023621 752.156616 487.539948 C 750.816956 483.631073 750.422119 479.47226 750.462097 475.363434 C 750.462097 465.131409 750.467041 454.899353 750.462097 444.662292 C 746.508179 444.652283 742.564392 444.667297 738.615479 444.657288 C 738.610535 438.988953 738.610535 433.325562 738.615479 427.662201 C 742.559387 427.647217 746.508179 427.662201 750.462097 427.652222 C 750.472107 421.438995 750.452026 415.2258 750.467041 409.012573 Z"/>
			<path id="path19" fill="#b9c5df" stroke="none" d="M 145.681671 425.287903 C 155.488831 424.13324 165.825851 425.382874 174.558334 430.211487 C 181.641281 434.025391 187.494598 440.128601 190.833633 447.466492 C 194.157669 454.759399 194.887466 463.056976 193.732803 470.934723 C 192.548141 478.992371 188.589279 486.585205 182.67598 492.178589 C 176.232849 498.296814 167.690323 502.010742 158.897858 503.050446 C 149.265625 504.18512 139.113571 502.965485 130.521057 498.26181 C 123.443092 494.48291 117.579781 488.454651 114.110786 481.211731 C 110.426842 473.528961 109.667068 464.66153 111.106651 456.333923 C 112.541237 448.036316 117.054932 440.383545 123.423096 434.910095 C 129.641296 429.531677 137.539017 426.24762 145.681671 425.287903 M 149.155655 443.252686 C 143.992157 443.9375 139.173538 446.911652 136.339371 451.29541 C 133.060318 456.134003 132.395508 462.277222 133.085297 467.965576 C 133.750107 473.369019 136.479324 478.627502 140.953018 481.836578 C 146.70137 485.925385 154.679077 486.355255 161.032242 483.456085 C 166.175751 481.101807 169.779709 476.103241 171.084351 470.6698 C 172.039063 466.645935 172.069046 462.41217 171.274277 458.358368 C 170.254578 453.199829 167.145477 448.38623 162.576797 445.692017 C 158.582947 443.287689 153.72435 442.612915 149.155655 443.252686 Z"/>
			<path id="path20" fill="#b9c5df" stroke="none" d="M 230.232254 435.010071 C 236.620422 427.877136 246.452591 424.723053 255.839874 424.893005 C 264.692322 424.903015 274.07959 427.862152 279.872955 434.875122 C 285.196381 441.043335 287.080841 449.385925 287.175842 457.363617 C 287.21579 472.359283 287.180847 487.359955 287.195801 502.360657 C 279.807953 502.370636 272.420074 502.370636 265.037201 502.360657 C 265.032196 488.694611 265.047211 475.033539 265.027222 461.367462 C 264.95224 456.893799 264.197449 452.07016 261.168335 448.576172 C 258.504089 445.487061 254.365295 444.072479 250.371445 444.002502 C 245.01799 443.792542 239.269653 445.49707 235.740677 449.71582 C 232.396622 453.599731 231.341934 458.878204 231.286957 463.871765 C 231.266953 476.698059 231.286957 489.529358 231.281967 502.360657 C 223.894104 502.365662 216.506241 502.375641 209.123352 502.355652 C 209.128342 476.893005 209.123352 451.430328 209.123352 425.967682 C 216.161316 425.957703 223.19429 425.962708 230.232254 425.967682 C 230.232254 428.981812 230.232254 431.995941 230.232254 435.010071 Z"/>
			<path id="path21" fill="#b9c5df" stroke="none" d="M 312.613495 430.691345 C 321.011078 425.542816 331.208099 424.528137 340.850342 424.992981 C 349.617798 425.58783 358.620209 427.072388 366.36795 431.441101 C 363.903687 436.729584 361.414368 442.003052 358.940125 447.28656 C 351.46225 442.747833 342.499847 441.223297 333.857361 441.71814 C 330.428314 441.983093 326.62442 442.547913 324.135162 445.167175 C 322.210693 447.076599 322.220703 450.645599 324.40506 452.350098 C 326.849365 454.139587 329.898468 454.804382 332.817657 455.374207 C 341.495148 457.018738 350.652496 457.453613 358.630219 461.612396 C 363.308868 463.906738 367.122772 468.205505 368.252411 473.364014 C 369.272125 478.082642 369.142151 483.196198 367.112732 487.644897 C 364.943359 492.4935 360.814575 496.237396 356.1409 498.631744 C 349.297882 502.210693 341.470154 503.335358 333.832336 503.435333 C 324.934906 503.565308 316.007507 502.140717 307.639923 499.101563 C 304.875702 498.091888 302.191467 496.852234 299.712189 495.2677 C 302.181488 489.984192 304.665771 484.70575 307.140076 479.427246 C 316.61731 485.060638 327.97406 487.544922 338.940887 486.445251 C 341.610107 486.105316 344.514252 485.495514 346.418701 483.431091 C 348.203186 481.561646 348.408142 478.11264 346.298737 476.408142 C 344.429291 474.978577 342.084961 474.358704 339.830627 473.848877 C 332.447754 472.394287 324.864929 471.924438 317.647034 469.700073 C 312.988373 468.2005 308.294739 465.936157 305.305573 461.917328 C 301.856567 457.578583 301.211761 451.690277 301.831604 446.351807 C 302.626373 439.763733 307.015106 434.04538 312.613495 430.691345 Z"/>
			<path id="path22" fill="#b9c5df" stroke="none" d="M 438.497162 427.147369 C 446.354858 424.703064 454.742432 424.513123 462.880127 425.302917 C 470.312988 426.162628 477.865784 427.687195 484.428894 431.441101 C 481.959625 436.724579 479.475311 442.003052 477.001038 447.28656 C 469.358215 442.657867 460.170868 441.143341 451.353455 441.763153 C 448.079376 442.05307 444.480408 442.702881 442.141083 445.227142 C 440.186646 447.206573 440.331604 450.910492 442.685944 452.525024 C 445.515106 454.429474 448.964111 455.024292 452.258179 455.62915 C 460.480774 457.058716 469.088318 457.673553 476.621155 461.582397 C 481.339783 463.871765 485.18866 468.195526 486.313324 473.389038 C 487.51297 478.837433 487.07309 484.850708 484.103973 489.684296 C 480.105103 496.362366 472.697235 500.121307 465.35437 501.900787 C 456.157074 503.995178 446.529816 503.850189 437.272491 502.230682 C 430.48941 500.901062 423.676392 498.966644 417.773132 495.272705 C 420.232422 489.979218 422.72168 484.70575 425.195984 479.422241 C 434.203369 484.795715 444.905273 487.26001 455.357269 486.595215 C 458.421387 486.330261 461.800385 485.940399 464.15976 483.756042 C 466.224121 481.936554 466.594025 478.212616 464.344696 476.398132 C 462.045319 474.683624 459.146179 474.083801 456.386963 473.55896 C 447.254608 471.889465 437.557404 471.54953 429.259827 466.955841 C 424.876068 464.576569 421.382111 460.377747 420.307404 455.459167 C 419.042786 449.73584 419.547638 443.39267 422.761688 438.36911 C 426.265656 432.715729 432.283936 429.131775 438.497162 427.147369 Z"/>
			<path id="path23" fill="#b9c5df" stroke="none" d="M 587.209167 425.507813 C 596.361572 424.083252 606.063782 425.027985 614.416382 429.191772 C 621.109375 432.450836 626.687805 437.869263 630.211853 444.417358 C 634.48053 452.295105 635.405334 461.572418 634.485535 470.369873 C 615.201172 470.394867 595.916748 470.359863 576.637268 470.384888 C 577.567017 474.503693 579.811279 478.357544 583.135376 481.001831 C 586.819275 483.975952 591.537964 485.435547 596.221619 485.730438 C 601.010193 486.020355 605.968811 485.515503 610.362488 483.456085 C 613.096802 482.206451 615.541077 480.396973 617.725464 478.34259 C 621.659302 482.601349 625.59314 486.860107 629.512024 491.133911 C 623.603699 497.82193 615.041199 501.710846 606.288696 502.875519 C 598.016052 503.960175 589.448547 503.580292 581.460876 501.046021 C 572.613464 498.216858 564.585693 492.418518 559.787109 484.390808 C 554.953491 476.548096 553.563904 466.945862 554.798584 457.908478 C 555.648315 451.495331 558.172607 445.307098 562.121399 440.173615 C 568.134705 432.235901 577.422058 427.047394 587.209167 425.507813 M 583.475281 445.142181 C 579.511414 448.026306 577.082153 452.664978 576.372314 457.463593 C 588.903687 457.468597 601.435059 457.473602 613.966492 457.463593 C 613.161743 451.470337 609.322815 445.916931 603.814392 443.342682 C 597.366211 440.448517 589.243591 440.908386 583.475281 445.142181 Z"/>
			<path id="path24" fill="#b9c5df" stroke="none" d="M 670.805054 435.010071 C 677.033264 428.057098 686.565552 424.863037 695.737915 424.893005 C 704.535339 424.78302 713.907593 427.487274 719.900879 434.250305 C 725.614258 440.468506 727.668701 449.121002 727.748657 457.368622 C 727.78363 472.364288 727.758667 487.36496 727.763611 502.360657 C 720.380798 502.365662 712.997925 502.365662 705.615051 502.360657 C 705.605042 488.859528 705.615051 475.363434 705.609985 461.862305 C 705.575073 457.633545 705.005188 453.164856 702.545898 449.600891 C 700.331482 446.401794 696.577637 444.532349 692.763733 444.137451 C 687.145386 443.492615 680.932129 444.847229 676.918274 449.046051 C 673.254395 452.829956 671.969727 458.243378 671.874817 463.366882 C 671.824829 476.368134 671.869751 489.36438 671.849731 502.360657 C 664.466858 502.365662 657.084045 502.365662 649.701172 502.360657 C 649.696167 476.89798 649.696167 451.430328 649.701172 425.967682 C 656.734131 425.962708 663.76709 425.962708 670.805054 425.967682 C 670.805054 428.981812 670.805054 431.995941 670.805054 435.010071 Z"/>
			<path id="path25" fill="#b9c5df" stroke="none" d="M 382.508301 425.962708 C 389.891174 425.952698 397.279022 425.957703 404.661896 425.962708 C 404.661896 451.430328 404.661896 476.893005 404.661896 502.360657 C 397.279022 502.370636 389.891174 502.370636 382.508301 502.360657 C 382.508301 476.893005 382.508301 451.430328 382.508301 425.962708 Z"/>
			<path id="path26" fill="#b9c5df" stroke="none" d="M 816.413086 476.158203 C 820.591797 475.358429 825.195496 476.248169 828.474609 479.052368 C 834.732727 484.030945 834.767761 494.732849 828.754517 499.921356 C 823.731018 504.61499 815.133362 504.625 810.064819 500.001343 C 804.031616 494.897797 803.951599 484.280884 810.064819 479.212311 C 811.864319 477.657776 814.073669 476.593079 816.413086 476.158203 Z"/>
		</g>
	</g>
</svg>
