<?xml version="1.0" encoding="UTF-8"?>
<!-- Generated by Pixelmator Pro 3.5.6 -->
<svg width="2048" height="2048" viewBox="0 0 2048 2048" xmlns="http://www.w3.org/2000/svg">
    <path id="Rounded-Rectangle-copy" fill="#ffffff" fill-rule="evenodd" stroke="none" d="M 1024 2048 C 458.462158 2048 0 1589.537842 0 1024 C 0 458.46228 458.462158 0 1024 0 C 1589.53772 0 2048 458.46228 2048 1024 C 2048 1589.537842 1589.53772 2048 1024 2048 Z M 1118.453125 1581.119141 C 1158.150024 1581.103516 1191.078979 1575.651611 1213.115234 1569.779297 C 1315.464478 1542.505127 1412.664185 1489.248901 1486.570313 1354.644531 C 1593.555664 1159.793823 1573.400391 996.951172 1573.400391 996.951172 C 1573.400391 996.951172 1417.198853 994.058594 1105 1020 C 812.202393 1044.329346 642.878906 1076.005859 642.878906 1076.005859 C 642.878906 1076.005859 644.861511 1290.169678 794.509766 1441.476563 C 904.677124 1552.86499 1027.36145 1580.761597 1116.558594 1581.115234 C 1117.192139 1581.117676 1117.822998 1581.119385 1118.453125 1581.119141 Z M 355.167969 886.791016 C 396.681793 886.791016 430.335938 853.718018 430.335938 812.919922 C 430.335938 772.121704 396.681793 739.046875 355.167969 739.046875 C 313.654144 739.046875 280 772.121704 280 812.919922 C 280 853.718018 313.654144 886.791016 355.167969 886.791016 Z M 372.664063 810.974609 C 360.854095 810.974609 351.279297 801.401733 351.279297 789.591797 C 351.279297 777.781738 360.854095 768.207031 372.664063 768.207031 C 384.47406 768.207031 394.046875 777.781738 394.046875 789.591797 C 394.046875 801.401733 384.47406 810.974609 372.664063 810.974609 Z M 1688.744141 777.007813 C 1705.327759 777.007813 1721.911499 770.682251 1734.564453 758.029297 L 1736.371094 756.220703 C 1762.675293 729.916626 1762.675171 687.268921 1736.371094 660.964844 L 1723.501953 648.095703 C 1700.726685 625.320435 1663.800659 625.320435 1641.025391 648.095703 L 1632.828125 656.292969 C 1607.522217 681.598877 1607.522217 722.627686 1632.828125 747.933594 L 1642.923828 758.029297 C 1655.576782 770.682251 1672.160522 777.007813 1688.744141 777.007813 Z M 1711.587891 700.023438 C 1706.239868 700.02478 1700.598877 697.768799 1696.195313 693.365234 C 1688.143066 685.312988 1687.273315 673.127075 1694.251953 666.148438 C 1701.230591 659.1698 1713.416504 660.041504 1721.46875 668.09375 C 1729.520996 676.145996 1730.390747 688.329956 1723.412109 695.308594 C 1720.249878 698.470825 1716.019165 700.022339 1711.587891 700.023438 Z"/>
</svg>
