<?xml version="1.0" encoding="UTF-8"?>
<!-- Generated by Pixelmator Pro 3.5.6 -->
<svg width="1477" height="967" viewBox="0 0 1477 967" xmlns="http://www.w3.org/2000/svg">
    <path id="Path" fill="#f7aad6" fill-rule="evenodd" stroke="#570300" stroke-width="32.399826" stroke-linejoin="round" d="M 362.878052 445.006531 C 362.878052 445.006531 532.201477 413.329285 825 389 C 1137.199951 363.058594 1293.401123 365.950928 1293.401123 365.950928 C 1293.401123 365.950928 1313.555298 528.793823 1206.56958 723.645081 C 1132.663086 858.249817 1035.4646 911.505615 933.11499 938.779907 C 861.479248 957.869568 674.753235 972.496643 514.509277 810.476624 C 364.860657 659.169373 362.878052 445.006531 362.878052 445.006531 Z"/>
    <path id="Ellipse" fill="#570300" fill-rule="evenodd" stroke="none" d="M 150.335205 181.919983 C 150.335205 141.121826 116.681519 108.04834 75.167603 108.04834 C 33.653683 108.04834 0 141.121826 0 181.919983 C 0 222.71814 33.653683 255.791565 75.167603 255.791565 C 116.681519 255.791565 150.335205 222.71814 150.335205 181.919983 Z"/>
    <path id="Rounded-Rectangle" fill="#570300" fill-rule="evenodd" stroke="none" d="M 1362.924194 127.02771 C 1388.230103 152.333557 1429.258911 152.333557 1454.564819 127.02771 L 1456.372192 125.220276 C 1482.676392 98.916199 1482.67627 56.26886 1456.372192 29.964783 L 1443.502808 17.095276 C 1420.727539 -5.679932 1383.801514 -5.679932 1361.026245 17.095276 L 1352.829346 25.292297 C 1327.523438 50.598083 1327.523438 91.627014 1352.829346 116.9328 Z"/>
    <path id="Ellipse-copy" fill="#ffffff" fill-rule="evenodd" stroke="none" d="M 114.047394 158.592102 C 114.047394 146.782104 104.473503 137.208191 92.663506 137.208191 C 80.853516 137.208191 71.279617 146.782104 71.279617 158.592102 C 71.279617 170.4021 80.853516 179.975952 92.663506 179.975952 C 104.473503 179.975952 114.047394 170.4021 114.047394 158.592102 Z"/>
    <path id="Ellipse-copy-2" fill="#ffffff" fill-rule="evenodd" stroke="none" d="M 1441.468384 37.092712 C 1433.416016 29.040466 1421.231079 28.170105 1414.252441 35.148743 C 1407.273804 42.12738 1408.144165 54.312317 1416.196411 62.364624 C 1424.248779 70.41687 1436.433716 71.287231 1443.412354 64.308594 C 1450.390991 57.329956 1449.52063 45.14502 1441.468384 37.092712 Z"/>
</svg>
