<?xml version="1.0" encoding="UTF-8"?>
<!-- Generated by Pixelmator Pro 3.5.6 -->
<svg width="560" height="512" viewBox="0 0 560 512" xmlns="http://www.w3.org/2000/svg">
    <path id="Rounded-Rectangle-copy" fill="#ffffff" fill-rule="evenodd" stroke="none" d="M 0 472 C -0 494.0914 17.908609 512 40 512 L 520 512 C 542.09137 512 560 494.0914 560 472 L 560 433 C 560 410.9086 542.09137 393 520 393 L 40 393 C 17.908609 393 0 410.9086 0 433 Z"/>
    <path id="Rounded-Rectangle" fill="#ffffff" fill-rule="evenodd" stroke="none" d="M 88 318 L 472 318 L 472 60 C 472 26.862915 445.137085 0 412 0 L 148 0 C 114.862915 0 88 26.862915 88 60 Z"/>
    <path id="Rounded-Rectangle-copy-2" fill="#ffffff" fill-opacity="0.504651" fill-rule="evenodd" stroke="none" d="M 88 393 L 472 393 L 472 318 L 88 318 Z"/>
</svg>
